<svg width="26" height="28" viewBox="0 0 26 28" fill="none" xmlns="http://www.w3.org/2000/svg">
<g id="Whatsapp">
<g id="Union">
<path d="M9.09158 7.92988C9.322 7.93931 9.57693 7.9501 9.81914 8.4885C9.98466 8.85656 10.2632 9.54272 10.4851 10.0896C10.6487 10.4925 10.7815 10.8198 10.8158 10.8884C10.8967 11.0501 10.9505 11.2388 10.8428 11.4547C10.8266 11.487 10.8117 11.5175 10.7974 11.5466C10.7164 11.7119 10.6569 11.8333 10.5198 11.9939C10.466 12.0566 10.4104 12.1243 10.3549 12.1919C10.2433 12.3276 10.1316 12.4634 10.0347 12.5601C9.87255 12.7213 9.70411 12.8964 9.89272 13.2198C10.0814 13.5434 10.7303 14.6017 11.6914 15.4586C12.7239 16.3792 13.6209 16.7686 14.0764 16.9664C14.1659 17.0052 14.2383 17.0366 14.2914 17.0633C14.6147 17.2249 14.8033 17.198 14.9919 16.9819C15.1806 16.7663 15.7998 16.0383 16.0154 15.7149C16.231 15.3913 16.4466 15.4452 16.7429 15.5529C17.0394 15.6607 18.6289 16.443 18.9522 16.6047C19.0152 16.6362 19.0742 16.6646 19.1288 16.691C19.3545 16.7999 19.5069 16.8734 19.5719 16.9819C19.6528 17.1172 19.6528 17.7642 19.3833 18.5191C19.1139 19.274 17.7938 20.0021 17.201 20.056C17.144 20.0612 17.0873 20.0679 17.0289 20.0747C16.4811 20.1391 15.7896 20.2204 13.3213 19.2471C10.2841 18.0494 8.28149 15.0812 7.86776 14.468C7.83383 14.4177 7.81059 14.3833 7.79833 14.367L7.79473 14.3621C7.6204 14.1292 6.47816 12.6027 6.47816 11.0231C6.47816 9.5342 7.21004 8.75372 7.54678 8.39462C7.56979 8.37008 7.59095 8.34751 7.60991 8.32682C7.9061 8.00327 8.25644 7.92231 8.47198 7.92231C8.48379 7.92231 8.49561 7.92231 8.50742 7.92231C8.71097 7.92228 8.9135 7.92226 9.09158 7.92988Z" fill="white"/>
<path fill-rule="evenodd" clip-rule="evenodd" d="M1.85341 20.3448C0.70482 18.387 0.104418 16.1681 0.104418 13.8709C0.104418 6.7444 5.9257 0.949219 13.0522 0.949219C16.5241 0.949219 19.761 2.30665 22.2149 4.73436C24.6426 7.18817 26 10.4251 26 13.897C26 21.0235 20.1787 26.8187 13.0522 26.8187C10.8855 26.8187 8.74498 26.2966 6.86546 25.2524L0 27.0536L1.85341 20.3448ZM3.94177 19.6139L4.20281 20.0054L3.10643 23.9733L7.17871 22.903L7.57028 23.138C9.21486 24.1299 11.1205 24.652 13.0522 24.652C18.9779 24.652 23.8072 19.8227 23.8072 13.897C23.8072 11.0255 22.6847 8.31067 20.6486 6.27452C18.6386 4.26448 15.9237 3.14199 13.0522 3.14199C7.12651 3.14199 2.29719 7.9452 2.29719 13.897C2.29719 15.9071 2.87149 17.891 3.94177 19.6139Z" fill="white"/>
</g>
</g>
</svg>
